<?xml version="1.0" standalone="no"?>
<!DOCTYPE svg PUBLIC "-//W3C//DTD SVG 20010904//EN"
 "http://www.w3.org/TR/2001/REC-SVG-20010904/DTD/svg10.dtd">
<svg version="1.0" xmlns="http://www.w3.org/2000/svg"
 width="700.000000pt" height="700.000000pt" viewBox="0 0 700.000000 700.000000"
 preserveAspectRatio="xMidYMid meet">
<metadata>
Created by potrace 1.14, written by Peter Selinger 2001-2017
</metadata>
<g transform="translate(0.000000,700.000000) scale(0.100000,-0.100000)"
fill="#000000" stroke="none">
<path d="M4118 5427 l-447 -450 397 -397 c218 -219 405 -406 414 -417 17 -18
-21 -19 -2230 -18 l-2247 0 -3 -643 c-2 -607 -1 -642 15 -643 10 0 1023 0
2251 -1 1228 0 2232 -2 2230 -4 -2 -2 -189 -189 -415 -416 l-413 -413 455
-455 455 -455 1190 1190 c655 654 1190 1193 1190 1196 0 11 -2369 2374 -2382
2375 -7 1 -214 -201 -460 -449z"/>
</g>
</svg>
