<?xml version="1.0" encoding="UTF-8" standalone="no"?><!DOCTYPE svg PUBLIC "-//W3C//DTD SVG 1.1//EN" "http://www.w3.org/Graphics/SVG/1.1/DTD/svg11.dtd"><svg width="100%" height="100%" viewBox="0 0 113 113" version="1.1" xmlns="http://www.w3.org/2000/svg" xmlns:xlink="http://www.w3.org/1999/xlink" xml:space="preserve" xmlns:serif="http://www.serif.com/" style="fill-rule:evenodd;clip-rule:evenodd;stroke-linejoin:round;stroke-miterlimit:2;"><g id="Podcast_icon_final"><g id="logo_podcasts_192px"><rect id="Rectangle-path" x="0" y="0" width="112.5" height="112.5" style="fill:none;"/><path id="Shape" d="M11.133,46.289c-3.563,0 -6.446,2.883 -6.446,6.445l0,7.032c0,3.562 2.883,6.445 6.446,6.445c3.562,-0 6.445,-2.883 6.445,-6.445l0,-7.032c0,-3.562 -2.883,-6.445 -6.445,-6.445Z" style="fill:#0066d9;fill-rule:nonzero;"/><path id="Shape1" serif:id="Shape" d="M101.367,46.289c-3.562,0 -6.445,2.883 -6.445,6.445l-0,7.032c-0,3.562 2.883,6.445 6.445,6.445c3.563,-0 6.446,-2.883 6.446,-6.445l-0,-7.032c-0,-3.562 -2.883,-6.445 -6.446,-6.445Z" style="fill:#4285f4;fill-rule:nonzero;"/><path id="Shape2" serif:id="Shape" d="M33.398,67.383c-3.562,-0 -6.445,2.883 -6.445,6.445l0,7.031c0,3.563 2.883,6.446 6.445,6.446c3.563,-0 6.446,-2.883 6.446,-6.446l-0,-7.031c-0,-3.562 -2.883,-6.445 -6.446,-6.445Z" style="fill:#ea4335;fill-rule:nonzero;"/><path id="Shape3" serif:id="Shape" d="M33.398,25.195c-3.562,0 -6.445,2.883 -6.445,6.446l0,22.998l0.006,-0c0.082,3.492 2.93,6.299 6.439,6.299c3.51,-0 6.358,-2.807 6.44,-6.299l0.006,-0l-0,-22.998c-0,-3.563 -2.883,-6.446 -6.446,-6.446Z" style="fill:#ea4335;fill-rule:nonzero;"/><path id="Shape4" serif:id="Shape" d="M79.102,25.195c-3.563,0 -6.446,2.883 -6.446,6.446l0,7.031c0,3.562 2.883,6.445 6.446,6.445c3.562,0 6.445,-2.883 6.445,-6.445l-0,-7.031c-0,-3.563 -2.883,-6.446 -6.445,-6.446Z" style="fill:#34a853;fill-rule:nonzero;"/><path id="Shape5" serif:id="Shape" d="M56.25,4.688c-3.563,-0 -6.445,2.882 -6.445,6.445l-0,7.031c-0,3.563 2.883,6.445 6.445,6.445c3.563,0 6.445,-2.882 6.445,-6.445l0,-7.031c0,-3.563 -2.882,-6.446 -6.445,-6.446Z" style="fill:#fab908;fill-rule:nonzero;"/><path id="Shape6" serif:id="Shape" d="M56.25,87.891c-3.563,-0 -6.445,2.882 -6.445,6.445l-0,7.031c-0,3.563 2.883,6.445 6.445,6.445c3.563,0.001 6.445,-2.882 6.445,-6.445l0,-7.031c0,-3.563 -2.882,-6.445 -6.445,-6.445Z" style="fill:#fab908;fill-rule:nonzero;"/><path id="Shape7" serif:id="Shape" d="M79.102,51.563c-3.563,-0 -6.446,2.882 -6.446,6.445l0,22.851c0,3.563 2.883,6.446 6.446,6.446c3.562,-0 6.445,-2.883 6.445,-6.446l-0,-22.851c-0,-3.563 -2.883,-6.446 -6.445,-6.446Z" style="fill:#34a853;fill-rule:nonzero;"/><path id="Shape8" serif:id="Shape" d="M62.695,37.5c0,-3.563 -2.882,-6.445 -6.445,-6.445c-3.563,-0 -6.445,2.883 -6.445,6.445l-0,37.5c-0,3.563 2.883,6.445 6.445,6.445c3.563,0 6.445,-2.882 6.445,-6.445l0,-37.5Z" style="fill:#fab908;fill-rule:nonzero;"/></g></g></svg>