<?xml version="1.0" encoding="UTF-8" standalone="no"?><!DOCTYPE svg PUBLIC "-//W3C//DTD SVG 1.1//EN" "http://www.w3.org/Graphics/SVG/1.1/DTD/svg11.dtd"><svg width="100%" height="100%" viewBox="0 0 1000 1000" version="1.1" xmlns="http://www.w3.org/2000/svg" xmlns:xlink="http://www.w3.org/1999/xlink" xml:space="preserve" xmlns:serif="http://www.serif.com/" style="fill-rule:evenodd;clip-rule:evenodd;stroke-linejoin:round;stroke-miterlimit:2;"><path d="M292.92,3.5c-53.2,2.51 -89.53,11 -121.29,23.48c-32.87,12.81 -60.73,30 -88.45,57.82c-27.72,27.82 -44.79,55.7 -57.51,88.62c-12.31,31.83 -20.65,68.19 -23,121.42c-2.35,53.23 -2.87,70.34 -2.61,206.12c0.26,135.78 0.86,152.8 3.44,206.14c2.54,53.19 11,89.51 23.48,121.28c12.83,32.87 30,60.72 57.83,88.45c27.83,27.73 55.69,44.76 88.69,57.5c31.8,12.29 68.17,20.67 121.39,23c53.22,2.33 70.35,2.87 206.09,2.61c135.74,-0.26 152.83,-0.86 206.16,-3.39c53.33,-2.53 89.46,-11.05 121.24,-23.47c32.87,-12.86 60.74,-30 88.45,-57.84c27.71,-27.84 44.77,-55.74 57.48,-88.68c12.32,-31.8 20.69,-68.17 23,-121.35c2.33,-53.37 2.88,-70.41 2.62,-206.17c-0.26,-135.76 -0.87,-152.78 -3.4,-206.1c-2.53,-53.32 -11,-89.53 -23.47,-121.32c-12.85,-32.87 -30,-60.7 -57.82,-88.45c-27.82,-27.75 -55.74,-44.8 -88.67,-57.48c-31.82,-12.31 -68.17,-20.7 -121.39,-23c-53.22,-2.3 -70.35,-2.89 -206.14,-2.63c-135.79,0.26 -152.79,0.84 -206.12,3.44m5.84,903.88c-48.75,-2.12 -75.22,-10.22 -92.86,-17c-23.36,-9 -40,-19.88 -57.58,-37.29c-17.58,-17.41 -28.38,-34.11 -37.5,-57.42c-6.85,-17.64 -15.1,-44.08 -17.38,-92.83c-2.48,-52.69 -3,-68.51 -3.29,-202c-0.29,-133.49 0.22,-149.29 2.53,-202c2.08,-48.71 10.23,-75.21 17,-92.84c9,-23.39 19.84,-40 37.29,-57.57c17.45,-17.57 34.1,-28.39 57.43,-37.51c17.62,-6.88 44.06,-15.06 92.79,-17.38c52.73,-2.5 68.53,-3 202,-3.29c133.47,-0.29 149.31,0.21 202.06,2.53c48.71,2.12 75.22,10.19 92.83,17c23.37,9 40,19.81 57.57,37.29c17.57,17.48 28.4,34.07 37.52,57.45c6.89,17.57 15.07,44 17.37,92.76c2.51,52.73 3.08,68.54 3.32,202c0.24,133.46 -0.23,149.31 -2.54,202c-2.13,48.75 -10.21,75.23 -17,92.89c-9,23.35 -19.85,40 -37.31,57.56c-17.46,17.56 -34.09,28.38 -57.43,37.5c-17.6,6.87 -44.07,15.07 -92.76,17.39c-52.73,2.48 -68.53,3 -202.05,3.29c-133.52,0.29 -149.27,-0.25 -202,-2.53m407.6,-674.61c0.055,32.877 27.123,59.9 60,59.9c32.915,-0 60,-27.085 60,-60c-0,-32.915 -27.085,-60 -60,-60c-0.04,-0 -0.08,-0 -0.12,0c-32.907,0.066 -59.935,27.193 -59.88,60.1m-463.1,267.73c0.28,141.8 115.44,256.49 257.21,256.22c141.77,-0.27 256.54,-115.42 256.27,-257.22c-0.27,-141.8 -115.46,-256.52 -257.25,-256.24c-141.79,0.28 -256.5,115.46 -256.23,257.24m90.06,-0.18c-0,-0.11 -0,-0.22 -0,-0.33c-0,-91.432 75.237,-166.67 166.67,-166.67c91.432,0 166.67,75.238 166.67,166.67c-0,91.308 -75.033,166.489 -166.34,166.67c-0.117,0 -0.234,0 -0.35,0c-91.305,0 -166.48,-75.036 -166.65,-166.34" style="fill:#fff;fill-rule:nonzero;"/></svg>