<?xml version="1.0" encoding="UTF-8" standalone="no"?><!DOCTYPE svg PUBLIC "-//W3C//DTD SVG 1.1//EN" "http://www.w3.org/Graphics/SVG/1.1/DTD/svg11.dtd"><svg width="100%" height="100%" viewBox="0 0 525 95" version="1.1" xmlns="http://www.w3.org/2000/svg" xmlns:xlink="http://www.w3.org/1999/xlink" xml:space="preserve" xmlns:serif="http://www.serif.com/" style="fill-rule:evenodd;clip-rule:evenodd;stroke-miterlimit:10;"><path d="M-0,36.463l9.849,0l0,29.919l9.055,-0l0,-29.919l9.85,0l-0,-7.255l-28.754,0l-0,7.255Z" style="fill-rule:nonzero;"/><path d="M58.673,66.382l9.584,-0l-13.45,-37.174l-10.485,0l-13.45,37.174l9.479,-0l2.224,-6.566l13.874,-0l2.224,6.566Zm-4.554,-13.556l-9.161,-0l4.554,-13.609l4.607,13.609Z" style="fill-rule:nonzero;"/><path d="M72.335,66.382l9.055,-0l-0,-22.347l8.366,22.347l7.308,-0l8.314,-22.294l-0,22.294l9.055,-0l-0,-37.174l-10.644,0l-10.326,25.736l-10.432,-25.736l-10.696,0l-0,37.174Z" style="fill-rule:nonzero;"/><path d="M148.217,57.274l-9.214,-28.066l-9.637,0l13.185,37.174l11.332,-0l13.186,-37.174l-9.585,0l-9.267,28.066Z" style="fill-rule:nonzero;"/><path d="M203.607,66.382l11.067,-0l-14.933,-18.958l14.403,-18.216l-10.643,0l-12.391,16.31l-0,-16.31l-9.055,0l-0,37.174l9.055,-0l-0,-16.416l12.497,16.416Z" style="fill-rule:nonzero;"/><path d="M244.328,66.382l9.585,-0l-13.451,-37.174l-10.484,0l-13.451,37.174l9.479,-0l2.224,-6.566l13.874,-0l2.224,6.566Zm-4.554,-13.556l-9.161,-0l4.554,-13.609l4.607,13.609Z" style="fill-rule:nonzero;"/><path d="M277.636,41.282c-0,2.912 -1.589,4.66 -4.978,4.66l-5.613,-0l0,-9.214l5.613,-0c3.389,-0 4.978,1.8 4.978,4.554Zm-19.646,-12.074l0,37.174l9.055,-0l0,-14.033l2.171,0l7.731,14.033l10.22,-0l-8.578,-14.721c5.719,-1.695 8.261,-6.09 8.261,-10.75c-0,-6.46 -4.554,-11.703 -13.662,-11.703l-15.198,0Z" style="fill-rule:nonzero;"/><path d="M308.561,57.274l-9.214,-28.066l-9.638,0l13.186,37.174l11.332,-0l13.185,-37.174l-9.584,0l-9.267,28.066Z" style="fill-rule:nonzero;"/><rect x="331.172" y="29.208" width="9.055" height="37.173" style="fill-rule:nonzero;"/><path d="M370.993,29.208l0,23.035l-15.145,-23.035l-9.055,0l0,37.174l9.055,-0l0,-22.929l15.145,22.929l9.055,-0l0,-37.174l-9.055,0Z" style="fill-rule:nonzero;"/><path d="M409.384,29.208l-22.77,0l0,37.174l22.77,-0l0,-7.255l-13.715,0l0,-8.155l12.127,0l-0,-6.99l-12.127,0l0,-7.519l13.715,0l0,-7.255Zm-18.216,-8.366l0,6.248l12.762,-5.348l0,-7.043l-12.762,6.143Z" style="fill-rule:nonzero;"/><path d="M455.392,32.17l15,15l-15,15" style="fill:none;stroke:#7ecb58;stroke-width:10px;"/><path d="M423.347,47.17l47.045,-0" style="fill:none;stroke:#7ecb58;stroke-width:10px;stroke-linejoin:round;stroke-miterlimit:1.5;"/></svg>