<?xml version="1.0" encoding="UTF-8" standalone="no"?><!DOCTYPE svg PUBLIC "-//W3C//DTD SVG 1.1//EN" "http://www.w3.org/Graphics/SVG/1.1/DTD/svg11.dtd"><svg width="100%" height="100%" viewBox="0 0 390 392" version="1.1" xmlns="http://www.w3.org/2000/svg" xmlns:xlink="http://www.w3.org/1999/xlink" xml:space="preserve" xmlns:serif="http://www.serif.com/" style="fill-rule:evenodd;clip-rule:evenodd;stroke-linejoin:round;stroke-miterlimit:2;"><path d="M309.958,173.611c8.635,5.168 19.824,2.298 24.959,-6.406c5.132,-8.69 2.293,-19.931 -6.366,-25.099c-72.27,-43.138 -186.63,-47.193 -255.424,-26.196c-9.631,2.942 -15.059,13.168 -12.142,22.85c2.916,9.677 13.093,15.139 22.716,12.204c59.929,-18.289 163.479,-14.842 226.257,22.647Zm-2.056,55.525c4.389,-7.17 2.142,-16.571 -4.995,-20.99c-60.113,-37.148 -148.044,-47.601 -218.78,-26.019c-8.014,2.456 -12.545,10.968 -10.124,19.043c2.438,8.058 10.919,12.611 18.95,10.172c61.919,-18.899 141.727,-9.529 194.065,22.822c7.137,4.41 16.482,2.158 20.884,-5.028Zm-23.83,53.325c3.5,-5.753 1.697,-13.271 -4.026,-16.786c-51.333,-31.542 -114.971,-38.882 -189.159,-21.828c-6.546,1.499 -10.625,8.045 -9.128,14.614c1.491,6.566 8,10.684 14.533,9.178c67.792,-15.572 125.355,-9.223 171.091,18.884c5.716,3.517 13.191,1.707 16.689,-4.062Zm-89.316,-282.461c107.562,0 194.754,87.675 194.754,195.831c0,108.163 -87.192,195.836 -194.754,195.836c-107.559,-0 -194.756,-87.673 -194.756,-195.836c-0,-108.156 87.197,-195.831 194.756,-195.831Z" style="fill:#1ed760;"/></svg>